<?xml version="1.0" encoding="UTF-8"?>
<svg width="567px" height="206px" viewBox="0 0 567 206" version="1.1" xmlns="http://www.w3.org/2000/svg" xmlns:xlink="http://www.w3.org/1999/xlink">
    <!-- Generator: Sketch 41 (35326) - http://www.bohemiancoding.com/sketch -->
    <title>CLF</title>
    <desc>Created with Sketch.</desc>
    <defs></defs>
    <g id="LOGO" stroke="none" stroke-width="1" fill="none" fill-rule="evenodd">
        <g id="ICon" transform="translate(-141.000000, -107.000000)">
            <g id="Group-2">
                <g id="CLF" transform="translate(129.000000, 77.000000)">
                    <path d="M110.548981,94.5376144 C110.513648,71.8565391 104.536079,56.2180097 91.3463537,44.2824678 C78.2210593,32.4089747 56.2270981,30.1153828 44.0786665,39.3584473 C31.275529,49.0956867 26.944078,71.5994795 34.3910977,89.6047298 C41.9586665,107.90028 56.2208628,118.36881 73.2536082,123.328287 C101.216824,131.4722 109.461962,130.997969 110.548981,94.5376144 Z M178.73061,222.702686 C159.681786,185.661731 151.592531,148.193082 153.986884,108.266855 C154.816178,94.4476869 154.691473,94.0643136 141.306374,94.5296801 C135.414021,94.7357709 127.719668,91.6975927 126.381158,102.835364 C121.01257,147.503897 128.203943,189.256133 151.326492,227.307598 C152.662924,229.508117 157.141943,231.327478 159.521747,230.678181 C165.705081,228.982917 171.533002,225.813993 178.73061,222.702686 Z M89.7230988,217.079686 C97.4195303,235.310971 107.200628,240.248288 127.506903,235.341996 C111.694197,206.141358 103.744197,174.531894 101.32906,141.484227 C92.3232164,140.764017 84.4563536,140.132448 75.8911377,139.443263 C72.86702,158.518856 78.7780789,191.154342 89.7230988,217.079686 Z M213.595532,154.383742 C212.872347,150.180863 210.85369,143.420445 209.62365,138.612251 C206.87044,132.833597 203.773348,127.710895 200.168893,123.185798 C193.822483,115.218402 185.903192,109.103647 175.518669,104.523049 C172.856198,142.361775 178.775571,176.142949 195.536042,209.159592 C209.683925,193.011375 216.357768,175.981179 213.595532,154.383742 Z M101.399726,33.9180917 C106.313138,41.0935994 111.621452,47.107907 114.951099,54.1792613 C118.447021,61.6096126 119.991295,70.0748503 122.518668,78.039265 C123.034119,79.6591836 123.778197,81.7156602 125.012786,82.4779747 C132.297688,86.9743013 147.87761,79.3267789 149.658825,70.5623771 C150.240786,67.6904012 150.959923,64.8228573 151.209335,61.9087768 C152.421061,47.7283957 145.957139,34.5740368 135.034982,28.688259 C123.393688,22.4102437 112.222119,24.0589706 101.399726,33.9180917 Z M37.0286272,189.456862 C40.7136861,202.772991 54.4209412,216.554487 64.0274512,218.391576 C59.5505099,194.349858 54.959255,169.705379 50.1227451,143.73793 C40.2834508,157.769837 32.0466271,171.456044 37.0286272,189.456862 Z" id="Combined-Shape" fill="#F1F1F1" fill-rule="evenodd" transform="translate(122.477967, 131.051201) rotate(-20.000000) translate(-122.477967, -131.051201) "></path>
                    <text font-family="Helvetica" font-size="144" font-weight="normal" fill="#FFFFFF">
                        <tspan x="311" y="205">CLF</tspan>
                    </text>
                </g>
            </g>
        </g>
    </g>
</svg>